<svg class="main-svg" xmlns="http://www.w3.org/2000/svg" xmlns:xlink="http://www.w3.org/1999/xlink" width="920" height="560" style="" viewBox="0 0 920 560"><rect x="0" y="0" width="920" height="560" style="fill: rgb(255, 255, 255); fill-opacity: 1;"/><defs id="defs-90c998"><g class="clips"><clipPath id="clip90c998xyplot" class="plotclip"><rect width="752" height="324"/></clipPath><clipPath class="axesclip" id="clip90c998x"><rect x="84" y="0" width="752" height="560"/></clipPath><clipPath class="axesclip" id="clip90c998y"><rect x="0" y="118" width="920" height="324"/></clipPath><clipPath class="axesclip" id="clip90c998xy"><rect x="84" y="118" width="752" height="324"/></clipPath></g><g class="gradients"/><g class="patterns"/></defs><g class="bglayer"/><g class="layer-below"><g class="imagelayer"/><g class="shapelayer"/></g><g class="cartesianlayer"><g class="subplot xy"><g class="layer-subplot"><g class="shapelayer"/><g class="imagelayer"/></g><g class="minor-gridlayer"><g class="x"/><g class="y"/></g><g class="gridlayer"><g class="x"><path class="xgrid crisp" transform="translate(126.89,0)" d="M0,118v324" style="stroke: rgb(238, 241, 246); stroke-opacity: 1; stroke-width: 1px;"/><path class="xgrid crisp" transform="translate(260.14,0)" d="M0,118v324" style="stroke: rgb(238, 241, 246); stroke-opacity: 1; stroke-width: 1px;"/><path class="xgrid crisp" transform="translate(393.38,0)" d="M0,118v324" style="stroke: rgb(238, 241, 246); stroke-opacity: 1; stroke-width: 1px;"/><path class="xgrid crisp" transform="translate(526.62,0)" d="M0,118v324" style="stroke: rgb(238, 241, 246); stroke-opacity: 1; stroke-width: 1px;"/><path class="xgrid crisp" transform="translate(659.86,0)" d="M0,118v324" style="stroke: rgb(238, 241, 246); stroke-opacity: 1; stroke-width: 1px;"/><path class="xgrid crisp" transform="translate(793.11,0)" d="M0,118v324" style="stroke: rgb(238, 241, 246); stroke-opacity: 1; stroke-width: 1px;"/></g><g class="y"><path class="ygrid crisp" transform="translate(0,389.37)" d="M84,0h752" style="stroke: rgb(238, 241, 246); stroke-opacity: 1; stroke-width: 1px;"/><path class="ygrid crisp" transform="translate(0,336.75)" d="M84,0h752" style="stroke: rgb(238, 241, 246); stroke-opacity: 1; stroke-width: 1px;"/><path class="ygrid crisp" transform="translate(0,284.12)" d="M84,0h752" style="stroke: rgb(238, 241, 246); stroke-opacity: 1; stroke-width: 1px;"/><path class="ygrid crisp" transform="translate(0,231.49)" d="M84,0h752" style="stroke: rgb(238, 241, 246); stroke-opacity: 1; stroke-width: 1px;"/><path class="ygrid crisp" transform="translate(0,178.87)" d="M84,0h752" style="stroke: rgb(238, 241, 246); stroke-opacity: 1; stroke-width: 1px;"/><path class="ygrid crisp" transform="translate(0,126.24)" d="M84,0h752" style="stroke: rgb(238, 241, 246); stroke-opacity: 1; stroke-width: 1px;"/></g></g><g class="zerolinelayer"/><g class="layer-between"><g class="shapelayer"/><g class="imagelayer"/></g><path class="xlines-below"/><path class="ylines-below"/><g class="overlines-below"/><g class="xaxislayer-below"/><g class="yaxislayer-below"/><g class="overaxes-below"/><g class="overplot"><g class="xy" transform="translate(84,118)" clip-path="url(#clip90c998xyplot)"><g class="scatterlayer mlayer"><g class="trace scatter tracea641fc" style="stroke-miterlimit: 2; opacity: 1;"><g class="fills"/><g class="errorbars"/><g class="lines"><path class="js-line" d="M42.89,318.96L442.62,319.43L575.86,319.27L709.11,319.22" style="vector-effect: none; fill: none; stroke: rgb(239, 85, 59); stroke-opacity: 1; stroke-dasharray: 9px, 9px; stroke-width: 1.4px; opacity: 1;"/></g><g class="points"><path class="point" transform="translate(42.89,318.96)" d="M3.5,0A3.5,3.5 0 1,1 0,-3.5A3.5,3.5 0 0,1 3.5,0Z" style="opacity: 1; stroke-width: 0px; fill: rgb(239, 85, 59); fill-opacity: 1;"/><path class="point" transform="translate(176.14,319.33)" d="M3.5,0A3.5,3.5 0 1,1 0,-3.5A3.5,3.5 0 0,1 3.5,0Z" style="opacity: 1; stroke-width: 0px; fill: rgb(239, 85, 59); fill-opacity: 1;"/><path class="point" transform="translate(309.38,319.21)" d="M3.5,0A3.5,3.5 0 1,1 0,-3.5A3.5,3.5 0 0,1 3.5,0Z" style="opacity: 1; stroke-width: 0px; fill: rgb(239, 85, 59); fill-opacity: 1;"/><path class="point" transform="translate(442.62,319.43)" d="M3.5,0A3.5,3.5 0 1,1 0,-3.5A3.5,3.5 0 0,1 3.5,0Z" style="opacity: 1; stroke-width: 0px; fill: rgb(239, 85, 59); fill-opacity: 1;"/><path class="point" transform="translate(575.86,319.27)" d="M3.5,0A3.5,3.5 0 1,1 0,-3.5A3.5,3.5 0 0,1 3.5,0Z" style="opacity: 1; stroke-width: 0px; fill: rgb(239, 85, 59); fill-opacity: 1;"/><path class="point" transform="translate(709.11,319.22)" d="M3.5,0A3.5,3.5 0 1,1 0,-3.5A3.5,3.5 0 0,1 3.5,0Z" style="opacity: 1; stroke-width: 0px; fill: rgb(239, 85, 59); fill-opacity: 1;"/></g><g class="text"/></g><g class="trace scatter trace28caad" style="stroke-miterlimit: 2; opacity: 1;"><g class="fills"/><g class="errorbars"/><g class="lines"><path class="js-line" d="M42.89,302.32L176.14,283.14L309.38,248.21L442.62,202.65L575.86,123.09L709.11,34.71" style="vector-effect: none; fill: none; stroke: rgb(99, 110, 250); stroke-opacity: 1; stroke-width: 2.6px; opacity: 1;"/></g><g class="points"><path class="point" transform="translate(42.89,302.32)" d="M4,0A4,4 0 1,1 0,-4A4,4 0 0,1 4,0Z" style="opacity: 1; stroke-width: 0px; fill: rgb(99, 110, 250); fill-opacity: 1;"/><path class="point" transform="translate(176.14,283.14)" d="M4,0A4,4 0 1,1 0,-4A4,4 0 0,1 4,0Z" style="opacity: 1; stroke-width: 0px; fill: rgb(99, 110, 250); fill-opacity: 1;"/><path class="point" transform="translate(309.38,248.21)" d="M4,0A4,4 0 1,1 0,-4A4,4 0 0,1 4,0Z" style="opacity: 1; stroke-width: 0px; fill: rgb(99, 110, 250); fill-opacity: 1;"/><path class="point" transform="translate(442.62,202.65)" d="M4,0A4,4 0 1,1 0,-4A4,4 0 0,1 4,0Z" style="opacity: 1; stroke-width: 0px; fill: rgb(99, 110, 250); fill-opacity: 1;"/><path class="point" transform="translate(575.86,123.09)" d="M4,0A4,4 0 1,1 0,-4A4,4 0 0,1 4,0Z" style="opacity: 1; stroke-width: 0px; fill: rgb(99, 110, 250); fill-opacity: 1;"/><path class="point" transform="translate(709.11,34.71)" d="M4,0A4,4 0 1,1 0,-4A4,4 0 0,1 4,0Z" style="opacity: 1; stroke-width: 0px; fill: rgb(99, 110, 250); fill-opacity: 1;"/></g><g class="text"/></g></g></g></g><g class="zerolinelayer-above"/><path class="xlines-above crisp" d="M83,442.5H836" style="fill: none; stroke-width: 1px; stroke: rgb(207, 213, 223); stroke-opacity: 1;"/><path class="ylines-above crisp" d="M83.5,118V442" style="fill: none; stroke-width: 1px; stroke: rgb(207, 213, 223); stroke-opacity: 1;"/><g class="overlines-above"/><g class="xaxislayer-above"><path class="xtick ticks crisp" d="M0,443v5" transform="translate(126.89,0)" style="stroke: rgb(207, 213, 223); stroke-opacity: 1; stroke-width: 1px;"/><path class="xtick ticks crisp" d="M0,443v5" transform="translate(260.14,0)" style="stroke: rgb(207, 213, 223); stroke-opacity: 1; stroke-width: 1px;"/><path class="xtick ticks crisp" d="M0,443v5" transform="translate(393.38,0)" style="stroke: rgb(207, 213, 223); stroke-opacity: 1; stroke-width: 1px;"/><path class="xtick ticks crisp" d="M0,443v5" transform="translate(526.62,0)" style="stroke: rgb(207, 213, 223); stroke-opacity: 1; stroke-width: 1px;"/><path class="xtick ticks crisp" d="M0,443v5" transform="translate(659.86,0)" style="stroke: rgb(207, 213, 223); stroke-opacity: 1; stroke-width: 1px;"/><path class="xtick ticks crisp" d="M0,443v5" transform="translate(793.11,0)" style="stroke: rgb(207, 213, 223); stroke-opacity: 1; stroke-width: 1px;"/><g class="xtick"><text text-anchor="middle" x="0" y="462.4" transform="translate(126.89,0)" style="font-family: -apple-system, BlinkMacSystemFont, 'Segoe UI', sans-serif; font-size: 12px; fill: rgb(107, 114, 128); fill-opacity: 1; white-space: pre;">8</text></g><g class="xtick"><text text-anchor="middle" x="0" y="462.4" style="font-family: -apple-system, BlinkMacSystemFont, 'Segoe UI', sans-serif; font-size: 12px; fill: rgb(107, 114, 128); fill-opacity: 1; white-space: pre;" transform="translate(260.14,0)">16</text></g><g class="xtick"><text text-anchor="middle" x="0" y="462.4" style="font-family: -apple-system, BlinkMacSystemFont, 'Segoe UI', sans-serif; font-size: 12px; fill: rgb(107, 114, 128); fill-opacity: 1; white-space: pre;" transform="translate(393.38,0)">32</text></g><g class="xtick"><text text-anchor="middle" x="0" y="462.4" style="font-family: -apple-system, BlinkMacSystemFont, 'Segoe UI', sans-serif; font-size: 12px; fill: rgb(107, 114, 128); fill-opacity: 1; white-space: pre;" transform="translate(526.62,0)">64</text></g><g class="xtick"><text text-anchor="middle" x="0" y="462.4" style="font-family: -apple-system, BlinkMacSystemFont, 'Segoe UI', sans-serif; font-size: 12px; fill: rgb(107, 114, 128); fill-opacity: 1; white-space: pre;" transform="translate(659.86,0)">128</text></g><g class="xtick"><text text-anchor="middle" x="0" y="462.4" style="font-family: -apple-system, BlinkMacSystemFont, 'Segoe UI', sans-serif; font-size: 12px; fill: rgb(107, 114, 128); fill-opacity: 1; white-space: pre;" transform="translate(793.11,0)">256</text></g></g><g class="yaxislayer-above"><path class="ytick ticks crisp" d="M83,0h-5" transform="translate(0,442)" style="stroke: rgb(207, 213, 223); stroke-opacity: 1; stroke-width: 1px;"/><path class="ytick ticks crisp" d="M83,0h-5" transform="translate(0,389.37)" style="stroke: rgb(207, 213, 223); stroke-opacity: 1; stroke-width: 1px;"/><path class="ytick ticks crisp" d="M83,0h-5" transform="translate(0,336.75)" style="stroke: rgb(207, 213, 223); stroke-opacity: 1; stroke-width: 1px;"/><path class="ytick ticks crisp" d="M83,0h-5" transform="translate(0,284.12)" style="stroke: rgb(207, 213, 223); stroke-opacity: 1; stroke-width: 1px;"/><path class="ytick ticks crisp" d="M83,0h-5" transform="translate(0,231.49)" style="stroke: rgb(207, 213, 223); stroke-opacity: 1; stroke-width: 1px;"/><path class="ytick ticks crisp" d="M83,0h-5" transform="translate(0,178.87)" style="stroke: rgb(207, 213, 223); stroke-opacity: 1; stroke-width: 1px;"/><path class="ytick ticks crisp" d="M83,0h-5" transform="translate(0,126.24)" style="stroke: rgb(207, 213, 223); stroke-opacity: 1; stroke-width: 1px;"/><g class="ytick"><text text-anchor="end" x="75.6" y="4.199999999999999" transform="translate(0,442)" style="font-family: -apple-system, BlinkMacSystemFont, 'Segoe UI', sans-serif; font-size: 12px; fill: rgb(107, 114, 128); fill-opacity: 1; white-space: pre;">0</text></g><g class="ytick"><text text-anchor="end" x="75.6" y="4.199999999999999" style="font-family: -apple-system, BlinkMacSystemFont, 'Segoe UI', sans-serif; font-size: 12px; fill: rgb(107, 114, 128); fill-opacity: 1; white-space: pre;" transform="translate(0,389.37)">500</text></g><g class="ytick"><text text-anchor="end" x="75.6" y="4.199999999999999" style="font-family: -apple-system, BlinkMacSystemFont, 'Segoe UI', sans-serif; font-size: 12px; fill: rgb(107, 114, 128); fill-opacity: 1; white-space: pre;" transform="translate(0,336.75)">1000</text></g><g class="ytick"><text text-anchor="end" x="75.6" y="4.199999999999999" style="font-family: -apple-system, BlinkMacSystemFont, 'Segoe UI', sans-serif; font-size: 12px; fill: rgb(107, 114, 128); fill-opacity: 1; white-space: pre;" transform="translate(0,284.12)">1500</text></g><g class="ytick"><text text-anchor="end" x="75.6" y="4.199999999999999" style="font-family: -apple-system, BlinkMacSystemFont, 'Segoe UI', sans-serif; font-size: 12px; fill: rgb(107, 114, 128); fill-opacity: 1; white-space: pre;" transform="translate(0,231.49)">2000</text></g><g class="ytick"><text text-anchor="end" x="75.6" y="4.199999999999999" style="font-family: -apple-system, BlinkMacSystemFont, 'Segoe UI', sans-serif; font-size: 12px; fill: rgb(107, 114, 128); fill-opacity: 1; white-space: pre;" transform="translate(0,178.87)">2500</text></g><g class="ytick"><text text-anchor="end" x="75.6" y="4.199999999999999" style="font-family: -apple-system, BlinkMacSystemFont, 'Segoe UI', sans-serif; font-size: 12px; fill: rgb(107, 114, 128); fill-opacity: 1; white-space: pre;" transform="translate(0,126.24)">3000</text></g></g><g class="overaxes-above"/></g></g><g class="polarlayer"/><g class="smithlayer"/><g class="ternarylayer"/><g class="geolayer"/><g class="funnelarealayer"/><g class="pielayer"/><g class="iciclelayer"/><g class="treemaplayer"/><g class="sunburstlayer"/><g class="glimages"/><defs id="topdefs-90c998"><g class="clips"/></defs><g class="layer-above"><g class="imagelayer"/><g class="shapelayer"><g class="shape-group" data-index="0"><path data-index="0" fill-rule="evenodd" d="M 90.94782608695652,441.7107142857143 L 829.0521739130436,441.7107142857143 Q 835.591304347826,441.7107142857143 835.591304347826,437.08214285714286 L 835.591304347826,122.91785714285713 Q 835.591304347826,118.28928571428571 829.0521739130436,118.28928571428571 L 90.94782608695652,118.28928571428571 Q 84.40869565217392,118.28928571428571 84.40869565217392,122.91785714285713 L 84.40869565217392,437.08214285714286 Q 84.40869565217392,441.7107142857143 90.94782608695652,441.7107142857143 Z" style="opacity: 1; stroke: rgb(217, 221, 231); stroke-opacity: 1; fill: rgb(0, 0, 0); fill-opacity: 0; stroke-width: 1px;"/></g></g></g><g class="infolayer"><g class="g-gtitle"/><g class="g-xtitle"><text class="xtitle" x="460" y="489.700390625" text-anchor="middle" style="opacity: 1; font-family: -apple-system, BlinkMacSystemFont, 'Segoe UI', sans-serif; font-size: 14px; fill: rgb(107, 114, 128); fill-opacity: 1; white-space: pre;">concurrent requests</text></g><g class="g-ytitle"><text class="ytitle" transform="rotate(-90,25.996484375,280)" x="25.996484375" y="280" text-anchor="middle" style="opacity: 1; font-family: -apple-system, BlinkMacSystemFont, 'Segoe UI', sans-serif; font-size: 14px; fill: rgb(107, 114, 128); fill-opacity: 1; white-space: pre;">output tok/s</text></g><g class="annotation" data-index="0" style="opacity: 1;"><g class="annotation-text-g" transform="rotate(0,328.66,55.24000000000002)"><g class="cursor-pointer" transform="translate(50,40)"><rect class="bg" x="0.5" y="0.5" width="556" height="29" style="stroke-width: 1px; stroke: rgb(0, 0, 0); stroke-opacity: 0; fill: rgb(0, 0, 0); fill-opacity: 0;"/><text class="annotation-text" text-anchor="middle" x="278.6953125" y="23" style="font-family: -apple-system, BlinkMacSystemFont, 'Segoe UI', sans-serif; font-size: 22px; fill: rgb(31, 41, 55); fill-opacity: 1; white-space: pre;"><tspan style="font-weight:bold">Esme-214M-Chat: serving throughput vs concurrency</tspan></text></g></g></g><g class="annotation" data-index="1" style="opacity: 1;"><g class="annotation-text-g" transform="rotate(0,450.66,84.76000000000002)"><g class="cursor-pointer" transform="translate(50,74)"><rect class="bg" x="0.5" y="0.5" width="800" height="20" style="stroke-width: 1px; stroke: rgb(0, 0, 0); stroke-opacity: 0; fill: rgb(0, 0, 0); fill-opacity: 0;"/><text class="annotation-text" text-anchor="middle" x="400.6015625" y="16" style="font-family: -apple-system, BlinkMacSystemFont, 'Segoe UI', sans-serif; font-size: 14px; fill: rgb(107, 114, 128); fill-opacity: 1; white-space: pre;">Total tok/s vs concurrent chat requests - A100-80GB, up to 256 new tokens, greedy, every point checked for correct output</text></g></g></g><g class="annotation" data-index="2" style="opacity: 1;"><g class="annotation-text-g" transform="rotate(0,463.66,511.8800000000001)"><g class="cursor-pointer" transform="translate(50,502)"><rect class="bg" x="0.5" y="0.5" width="826" height="18" style="stroke-width: 1px; stroke: rgb(0, 0, 0); stroke-opacity: 0; fill: rgb(0, 0, 0); fill-opacity: 0;"/><text class="annotation-text" text-anchor="middle" x="413.609375" y="14" style="font-family: -apple-system, BlinkMacSystemFont, 'Segoe UI', sans-serif; font-size: 12px; fill: rgb(107, 114, 128); fill-opacity: 1; white-space: pre;">Conclusion: one shared paged-KV engine turns concurrency into throughput - 206 tok/s at 8 requests to 2,748 at 256, 57x the flat naive-HF floor.</text></g></g></g><g class="annotation" data-index="3" style="opacity: 1;"><g class="annotation-text-g" transform="rotate(0,393.38,324.09000000000003)"><g class="cursor-pointer" transform="translate(365,314)"><rect class="bg" x="0.5" y="0.5" width="55" height="19" style="stroke-width: 1px; stroke: rgb(0, 0, 0); stroke-opacity: 0; fill: rgb(0, 0, 0); fill-opacity: 0;"/><text class="annotation-text" text-anchor="middle" x="28.1953125" y="15" style="font-family: -apple-system, BlinkMacSystemFont, 'Segoe UI', sans-serif; font-size: 13px; fill: rgb(99, 110, 250); fill-opacity: 1; white-space: pre;">llm_infer</text></g></g></g><g class="annotation" data-index="4" style="opacity: 1;"><g class="annotation-text-g" transform="rotate(0,665.12,420.76)"><g class="cursor-pointer" transform="translate(541,411)"><rect class="bg" x="0.5" y="0.5" width="248" height="19" style="stroke-width: 1px; stroke: rgb(0, 0, 0); stroke-opacity: 0; fill: rgb(0, 0, 0); fill-opacity: 0;"/><text class="annotation-text" text-anchor="middle" x="124.53125" y="15" style="font-family: -apple-system, BlinkMacSystemFont, 'Segoe UI', sans-serif; font-size: 13px; fill: rgb(239, 85, 59); fill-opacity: 1; white-space: pre;">naive HF sequential (floor) - 43-48 tok/s</text></g></g></g><g class="annotation" data-index="5" style="opacity: 1;"><g class="annotation-text-g" transform="rotate(0,725.61,146.23)"><g class="cursor-pointer" transform="translate(680,136)"><rect class="bg" x="0.5" y="0.5" width="90" height="20" style="stroke-width: 1px; stroke: rgb(0, 0, 0); stroke-opacity: 0; fill: rgb(0, 0, 0); fill-opacity: 0;"/><text class="annotation-text" text-anchor="middle" x="45.671875" y="16" style="font-family: -apple-system, BlinkMacSystemFont, 'Segoe UI', sans-serif; font-size: 14px; fill: rgb(31, 41, 55); fill-opacity: 1; white-space: pre;"><tspan style="font-weight:bold">57x the floor</tspan></text></g></g></g></g></svg>